<?xml version="1.0" encoding="UTF-8" standalone="no"?>
<!DOCTYPE svg PUBLIC "-//W3C//DTD SVG 1.1//EN" "http://www.w3.org/Graphics/SVG/1.1/DTD/svg11.dtd">
<svg width="100%" height="100%" viewBox="0 0 1080 1080" version="1.1" xmlns="http://www.w3.org/2000/svg" xmlns:xlink="http://www.w3.org/1999/xlink" xml:space="preserve" xmlns:serif="http://www.serif.com/" style="fill-rule:evenodd;clip-rule:evenodd;stroke-linejoin:round;stroke-miterlimit:2;">
    <g transform="matrix(1.03079,0,0,1.01796,-33.2554,-19.3916)">
        <rect x="32.262" y="19.05" width="1047.74" height="1060.95" style="fill:rgb(254,245,249);"/>
    </g>
    <path d="M634.464,741.6L392.544,741.6C445.536,730.08 471.456,707.616 443.232,655.2C425.952,623.52 380.448,604.512 318.816,598.752C358.56,592.992 404.064,587.232 377.568,537.696L363.744,513.504C315.36,425.376 338.976,374.688 358.56,338.4L536.544,655.2C568.224,707.04 590.112,730.08 634.464,741.6ZM229.536,655.2C246.816,707.04 264.096,724.32 315.936,741.6L143.136,741.6C194.976,724.32 212.256,707.04 229.536,655.2ZM596.448,540C596.448,401.76 688.608,338.4 792.864,338.4C727.2,374.688 688.608,443.232 688.608,540C688.608,636.768 727.2,705.312 792.864,741.6C688.608,741.6 596.448,678.24 596.448,540ZM850.464,338.4L936.864,338.4L936.864,424.8C919.584,372.96 902.304,355.68 850.464,338.4ZM936.864,655.2L936.864,741.6L850.464,741.6C902.304,724.32 919.584,707.04 936.864,655.2Z"/>
</svg>
